<?xml version="1.0" encoding="UTF-8" standalone="no"?>
<!-- Created with Inkscape (http://www.inkscape.org/) -->

<svg
   version="1.1"
   id="svg1"
   width="198.48544"
   height="198.39925"
   viewBox="0 0 198.48544 198.39925"
   sodipodi:docname="Entorno-InclusivoLogo.png"
   xmlns:inkscape="http://www.inkscape.org/namespaces/inkscape"
   xmlns:sodipodi="http://sodipodi.sourceforge.net/DTD/sodipodi-0.dtd"
   xmlns="http://www.w3.org/2000/svg"
   xmlns:svg="http://www.w3.org/2000/svg">
  <defs
     id="defs1" />
  <sodipodi:namedview
     id="namedview1"
     pagecolor="#ffffff"
     bordercolor="#000000"
     borderopacity="0.25"
     inkscape:showpageshadow="2"
     inkscape:pageopacity="0.0"
     inkscape:pagecheckerboard="0"
     inkscape:deskcolor="#d1d1d1"
     showgrid="false">
    <inkscape:page
       x="0"
       y="0"
       width="198.48544"
       height="198.39925"
       id="page2"
       margin="0"
       bleed="0" />
  </sodipodi:namedview>
  <g
     inkscape:groupmode="layer"
     inkscape:label="Image"
     id="g1"
     transform="translate(-153.33676,-144.78932)">
    <g
       id="g140"
       transform="translate(2.5795438,-6.0189229)">
      <path
         style="fill:#fde06f"
         d="M 204.17169,265.29194 C 200.79932,256.55734 201.15936,255 206.55102,255 c 5.7137,0 8.07407,-4.23485 4.89228,-8.77749 -1.95528,-2.79155 -5.38756,-2.8408 -8.83784,-0.1268 -1.46534,1.15264 -3.28211,1.85861 -4.03726,1.56884 -1.50423,-0.57723 -5.27768,-9.84371 -5.76318,-14.15264 -0.28506,-2.53008 0.12023,-2.83707 6.19498,-4.69243 3.575,-1.09187 7.33256,-2.79299 8.35013,-3.78026 1.79874,-1.74517 1.78627,-1.90598 -0.44872,-5.78937 -2.21105,-3.84178 -2.23309,-4.0947 -0.57708,-6.62209 3.48996,-5.32635 9.67567,-1.98507 9.67567,5.22642 v 3.40916 l 4.17104,-0.55946 c 3.94739,-0.52945 4.55825,-0.23916 11.39224,5.41372 4.6858,3.87596 8.45097,6.17273 10.72378,6.54156 2.50234,0.40607 3.43028,1.03565 3.2494,2.20461 -0.13925,0.89993 0.22769,1.94626 0.81542,2.32518 0.6991,0.45073 0.41339,1.41294 -0.82627,2.78275 -1.86375,2.05942 -1.85657,2.1795 0.43664,7.31105 1.28234,2.86949 2.37792,6.49049 2.43463,8.04667 0.0927,2.54458 -0.49284,3.07311 -5.81675,5.25 -7.64706,3.12681 -10.57556,3.17396 -10.59378,0.17058 -0.0428,-7.04668 -3.59149,-9.77748 -9.49859,-7.30933 -4.41545,1.84489 -5.54309,5.62344 -2.80221,9.38976 1.0685,1.46826 2.24263,3.17496 2.60917,3.79266 0.41979,0.70743 -1.45447,1.87589 -5.06414,3.15713 -10.81882,3.84007 -9.69414,4.22662 -13.05889,-4.48828 z M 247.3875,230.8375 c 0.31062,-1.5858 2.6125,-2.34514 2.6125,-0.86182 0,0.6283 -0.41157,0.88799 -0.91459,0.57711 -0.50302,-0.31089 -1.14427,-0.1012 -1.425,0.46598 -0.28073,0.56718 -0.40354,0.4856 -0.27291,-0.18127 z"
         id="path147" />
      <path
         style="fill:#f2d972"
         d="m 244,232.62244 c 0,-0.20765 0.7875,-0.99515 1.75,-1.75 1.58606,-1.24387 1.62143,-1.2085 0.37756,0.37756 C 244.82119,232.91575 244,233.44548 244,232.62244 Z"
         id="path146" />
      <path
         style="fill:#69cdd2"
         d="M 286.61281,304.85759 C 285.72576,303.59116 285,301.06599 285,299.24611 c 0,-4.54877 -2.14348,-5.07866 -9.44536,-2.335 -9.76788,3.67026 -9.10893,3.7691 -10.56031,-1.5841 C 263.0014,287.97637 260.22405,283 258.11453,283 c -1.01464,0 -2.98898,0.9 -4.3874,2 -3.57632,2.81313 -6.55814,2.57467 -7.77338,-0.62164 -1.21723,-3.20156 0.24127,-5.37836 3.6036,-5.37836 1.27185,0 3.46675,-0.43886 4.87755,-0.97525 3.04164,-1.15643 3.3996,-4.51033 0.98063,-9.1881 -0.87146,-1.68521 -2.18754,-4.7733 -2.92462,-6.86242 l -1.34015,-3.79839 6.98183,-2.58792 C 261.9726,254.16456 265.50653,253 265.98578,253 c 1.95957,0 4.01422,3.35379 4.01422,6.55238 0,2.82888 0.43831,3.51952 2.57374,4.05548 1.41556,0.35529 3.62653,0.16629 4.91327,-0.41999 3.44551,-1.56988 4.01364,-4.64173 1.58519,-8.57105 -1.13971,-1.84409 -2.0722,-3.79476 -2.0722,-4.33484 0,-1.23455 11.76412,-6.28872 14.62868,-6.28485 2.2118,0.003 2.75016,0.97239 5.78083,10.40931 1.93054,6.01134 0.98109,7.59356 -4.55671,7.59356 -3.3319,0 -4.05816,0.40197 -4.96859,2.75 -0.80872,2.08572 -0.73428,3.35389 0.30817,5.25 1.80966,3.29159 5.37835,3.69349 9.00273,1.01387 2.4719,-1.82756 3.17017,-1.95674 4.52636,-0.83739 1.84857,1.52574 4.77574,7.88897 5.73156,12.45959 l 0.65583,3.13606 -6.99318,2.12412 c -3.84625,1.16826 -7.70079,2.83172 -8.56566,3.69658 -1.42996,1.42997 -1.32322,2.01588 1.17779,6.46507 2.43155,4.32561 2.57771,5.06167 1.26123,6.35154 -0.81897,0.80242 -2.67578,1.74961 -4.12623,2.10485 -2.05653,0.50368 -2.99232,0.1389 -4.25,-1.6567 z"
         id="path145" />
      <path
         style="fill:#b1d67e"
         d="M 221.08458,311.42163 C 219.69594,305.90685 216.34407,299 215.0564,299 c -0.49662,0 -2.32676,1.19805 -4.06696,2.66234 -2.62953,2.2126 -3.61383,2.50518 -5.82673,1.73195 -2.04192,-0.71349 -2.7369,-1.69913 -2.98094,-4.22767 C 201.77207,294.92164 203.42934,293 207.5,293 c 5.25415,0 6.21451,-2.14225 3.72063,-8.29948 -3.33318,-8.2294 -3.26584,-9.0302 0.81735,-9.7195 1.94589,-0.32849 5.54589,-1.70195 8,-3.05212 5.21094,-2.8669 6.33589,-6.37559 3.00935,-9.38606 -2.74977,-2.48851 -2.58408,-5.34116 0.3889,-6.69574 3.72002,-1.69495 5.34887,-0.46296 6.11148,4.62247 1.01425,6.76351 2.79937,7.27642 11.99752,3.44722 4.15709,-1.7306 7.67604,-2.98235 7.81988,-2.78167 0.81681,1.13958 5.63489,12.77661 5.63489,13.60987 0,0.5472 -2.02475,1.22312 -4.49945,1.50206 -2.4747,0.27893 -5.1747,1.06756 -6,1.7525 -3.08506,2.56037 -0.89782,10.61165 3.15944,11.62996 1.45274,0.36462 3.6809,-0.22311 5.97306,-1.57551 2.01078,-1.18639 4.18957,-1.95231 4.84176,-1.70204 1.58951,0.60995 5.95657,14.62837 4.87637,15.65331 -0.46815,0.4442 -3.99411,1.76766 -7.83547,2.94101 -6.53872,1.99728 -7.06367,2.02483 -8.22847,0.43186 -0.6843,-0.93583 -0.98987,-2.71476 -0.67905,-3.95317 C 247.23868,298.9129 244.08768,295 241.43426,295 c -5.21639,0 -6.99918,5.0731 -3.89339,11.07903 0.84747,1.63884 1.29259,3.38143 0.98913,3.87242 -0.30345,0.491 -3.58434,1.89363 -7.29086,3.11696 -3.70653,1.22333 -7.24187,2.4086 -7.85632,2.63393 -0.63353,0.23233 -1.62848,-1.62088 -2.29824,-4.28071 z"
         id="path144" />
      <path
         style="fill:#add27f"
         d="m 212.8125,274.31689 c 0.72187,-0.28887 1.58437,-0.25335 1.91667,0.0789 0.33229,0.33229 -0.25834,0.56864 -1.3125,0.52522 -1.16495,-0.048 -1.4019,-0.28494 -0.60417,-0.60416 z"
         id="path143" />
      <path
         style="fill:#f59b42"
         d="m 226.07895,215.41667 c 0.048,-1.16495 0.28494,-1.4019 0.60416,-0.60417 0.28887,0.72187 0.25335,1.58437 -0.0789,1.91667 -0.3323,0.33229 -0.56864,-0.25834 -0.52522,-1.3125 z"
         id="path142" />
      <path
         style="fill:#f69b41"
         d="M 251.25,240.90762 C 247.41225,238.00003 246,236.26698 246,234.46504 246,233.10927 246.45,232 247,232 c 1.85973,0 5,-3.98501 5,-6.34501 0,-3.05097 -3.20838,-5.90447 -6.16753,-5.48535 -1.55612,0.2204 -2.99816,1.66175 -4.33247,4.33036 -1.1,2.2 -2.09286,4.16786 -2.20635,4.37302 -0.3673,0.66396 -12.79697,-10.11595 -12.69365,-11.00885 0.055,-0.47529 0.1675,-1.8813 0.25,-3.12445 C 226.99801,212.50943 234.36576,204 236.14881,204 c 0.50525,0 1.84791,1.575 2.98369,3.5 1.47274,2.49611 2.77264,3.5 4.53202,3.5 4.0644,0 6.33548,-1.77894 6.33548,-4.9626 0,-2.75918 -1.65249,-4.67535 -6.53749,-7.58067 -2.1737,-1.2928 -1.28754,-3.2139 4.68375,-10.15389 4.82357,-5.60606 5.17371,-5.81084 7.00644,-4.09748 7.2499,6.77769 11.03998,9.79464 12.30463,9.79464 0.82611,0 2.42031,-1.8 3.54267,-4 1.68588,-3.30461 2.55465,-4 4.99727,-4 2.0345,0 3.4575,0.76444 4.56261,2.45104 2.04953,3.12798 1.2335,5.60176 -2.55731,7.75245 -4.47876,2.54099 -3.79208,4.8812 2.99743,10.21534 3.3,2.59263 5.996,5.24651 5.99111,5.89752 -0.005,0.65101 -2.25488,3.80758 -5,7.01462 C 279.246,222.538 277,225.56394 277,226.05529 c 0,0.49134 1.4625,1.6427 3.25,2.55856 1.7875,0.91587 3.58061,2.16493 3.98469,2.77568 2.36718,3.57797 -1.12392,9.04866 -5.38649,8.44083 -1.29366,-0.18448 -3.20687,-1.74854 -4.33246,-3.54184 -1.10866,-1.76631 -2.54734,-3.22881 -3.19707,-3.25 -0.64973,-0.0212 -3.52971,2.66148 -6.39996,5.96148 -2.87026,3.3 -5.93866,5.97416 -6.81868,5.94259 -0.88002,-0.0316 -3.96253,-1.84731 -6.85003,-4.03497 z"
         id="path141" />
      <path
         style="fill:#417797"
         d="M 240.5,348.81673 C 207.62773,346.19078 176.55922,324.82637 161.51163,294.5 c -8.86119,-17.85852 -11.93637,-33.73734 -10.35845,-53.4863 2.27383,-28.45897 18.74697,-56.65769 42.52273,-72.79041 50.0988,-33.99385 118.21573,-16.461 144.82389,37.27671 8.85328,17.88004 11.92376,33.75208 10.34702,53.4863 -0.99324,12.43131 -3.96035,22.61523 -10.34702,35.5137 -8.77899,17.73 -21.98108,31.76325 -39.20734,41.67569 -17.89268,10.29591 -36.92437,14.38794 -58.79246,12.64104 z m -7.89043,-35.94361 c 3.04046,-1.13758 5.75469,-2.65879 6.03162,-3.38047 0.27694,-0.72167 -0.20404,-2.6804 -1.06884,-4.35273 -2.35461,-4.55333 -2.0285,-7.97496 0.88669,-9.30321 3.77518,-1.72009 8.35717,1.6565 7.59754,5.59882 -0.0992,0.51454 0.0892,2.00914 0.41853,3.32134 0.52289,2.08332 1.00616,2.30444 3.81185,1.74406 6.36088,-1.27048 12.86583,-3.73551 13.37771,-5.06945 0.51068,-1.33081 -2.84695,-12.59229 -4.56119,-15.29826 -0.69703,-1.10027 -1.61678,-0.85653 -4.71681,1.25 -4.54307,3.0871 -6.48924,3.26591 -8.71981,0.80116 -4.78158,-5.28359 -2.30732,-10.8864 5.25552,-11.9008 2.24269,-0.3008 4.07768,-1.05017 4.07774,-1.66525 2.4e-4,-2.15696 -5.45591,-13.6181 -6.47264,-13.59637 -0.56512,0.0121 -3.05248,0.95902 -5.52748,2.1043 -9.31442,4.31018 -13,4.137 -13,-0.61085 0,-6.10496 -2.77571,-8.68992 -7.41821,-6.90842 -2.02923,0.77869 -2.04195,4.79 -0.0216,6.81035 0.85811,0.85811 1.64561,2.80275 1.75,4.32143 0.16186,2.35481 -0.47255,3.0826 -4.3102,4.9446 -2.475,1.20086 -6.1875,2.47791 -8.25,2.8379 -2.0625,0.35999 -3.75,1.05606 -3.75,1.54683 0,0.49076 1.19667,3.80624 2.65926,7.36773 3.09241,7.53017 2.4784,9.2607 -3.46238,9.75834 -6.36553,0.53323 -7.77951,8.12629 -1.90417,10.22541 2.10102,0.75064 3.21634,0.42953 6.07118,-1.74797 3.12743,-2.3854 3.65791,-2.50696 5.01559,-1.14928 0.83504,0.83505 2.53776,4.6837 3.78381,8.55256 2.55443,7.93125 1.91849,7.73718 12.44628,3.79823 z m 60.82533,-6.84837 c 3.13405,-1.19156 3.36333,-4.44742 0.5651,-8.02475 -3.94924,-5.04882 -2.0786,-7.17703 9.18702,-10.45204 l 5.66063,-1.64559 -2.40791,-7.07954 c -1.32435,-3.89375 -2.92017,-7.69679 -3.54627,-8.45119 -1.62426,-1.95711 -4.29082,-1.69504 -6.39347,0.62836 -2.20225,2.43346 -4.24672,2.53919 -6.67126,0.34501 -2.07675,-1.87943 -2.42198,-6.35177 -0.62874,-8.14501 0.66,-0.66 2.92412,-1.2 5.03138,-1.2 5.04846,0 5.44843,-1.41632 2.74331,-9.71447 -3.22095,-9.88052 -3.327,-9.93912 -11.94796,-6.60096 -3.99904,1.54849 -7.51826,3.45372 -7.82047,4.23385 -0.30222,0.78013 0.20273,2.72909 1.12212,4.33104 2.20465,3.84137 2.10919,6.04457 -0.35866,8.27794 -1.60557,1.45303 -2.59922,1.63856 -4.75,0.88694 -2.14309,-0.74894 -2.79005,-1.68783 -3.05142,-4.42838 -0.61928,-6.49313 -2.77049,-7.24569 -11.38079,-3.98136 -8.5724,3.24997 -8.37998,2.81029 -4.79977,10.96747 4.18816,9.54235 3.7249,11.35955 -3.20983,12.59082 -6.0335,1.07127 -7.26424,3.38 -3.9703,7.44784 l 1.90234,2.34929 4.7207,-2.76651 c 4.41012,-2.5845 4.84029,-2.65829 6.53845,-1.12148 0.99976,0.90477 2.83871,4.8812 4.08657,8.83651 1.24786,3.9553 2.35229,7.31044 2.4543,7.45585 0.10201,0.14542 2.6213,-0.85077 5.59842,-2.21374 2.97712,-1.36297 6.98034,-2.60694 8.89606,-2.76439 3.46906,-0.28511 3.48537,-0.26681 4.04303,4.5334 0.73247,6.30502 2.91136,7.78709 8.38742,5.70509 z m -76.20893,-36.19837 5.72597,-2.05226 -2.47597,-4.22492 C 217.48076,258.43826 217.43229,257.56771 220,255 c 4.60526,-4.60526 12,-1.387 12,5.22251 0,2.39273 0.39835,2.77749 2.87557,2.77749 4.40262,0 14.12388,-4.63612 14.1273,-6.73739 0.002,-0.96944 -1.19164,-4.57679 -2.6516,-8.01635 -2.56416,-6.04095 -2.59334,-6.32129 -0.85751,-8.23937 1.78189,-1.96896 1.83776,-1.95633 6.65392,1.50374 2.67132,1.91915 5.46342,3.48937 6.20467,3.48937 0.74124,0 3.6961,-2.7 6.56636,-6 2.87025,-3.3 5.75023,-5.98267 6.39996,-5.96148 0.64973,0.0212 2.08841,1.48369 3.19707,3.25 1.12559,1.7933 3.0388,3.35736 4.33246,3.54184 4.26257,0.60783 7.75367,-4.86286 5.38649,-8.44083 -0.40408,-0.61075 -2.19719,-1.85981 -3.98469,-2.77568 -1.7875,-0.91586 -3.25,-2.06722 -3.25,-2.55856 0,-0.49135 2.246,-3.51729 4.99111,-6.72432 2.74512,-3.20704 4.99512,-6.36361 5,-7.01462 0.005,-0.65101 -2.69111,-3.30489 -5.99111,-5.89752 -6.78951,-5.33414 -7.47619,-7.67435 -2.99743,-10.21534 3.79081,-2.15069 4.60684,-4.62447 2.55731,-7.75245 C 279.45477,186.76444 278.03177,186 275.99727,186 c -2.44262,0 -3.31139,0.69539 -4.99727,4 -1.12236,2.2 -2.71656,4 -3.54267,4 -1.26465,0 -5.05473,-3.01695 -12.30463,-9.79464 -1.83273,-1.71336 -2.18287,-1.50858 -7.00644,4.09748 -5.97129,6.93999 -6.85745,8.86109 -4.68375,10.15389 4.885,2.90532 6.53749,4.82149 6.53749,7.58067 0,3.18366 -2.27108,4.9626 -6.33548,4.9626 -1.75938,0 -3.05928,-1.00389 -4.53202,-3.5 -1.13578,-1.925 -2.49228,-3.5 -3.01444,-3.5 -1.8835,0 -10.92816,10.65072 -11.08262,13.05056 -0.0438,0.67989 14.00824,12.30383 14.2735,11.80717 C 239.41402,228.66098 240.4,226.7 241.5,224.5 c 1.33431,-2.66861 2.77635,-4.10996 4.33247,-4.33036 2.71755,-0.3849 6.16753,2.35805 6.16753,4.90356 0,2.78577 -1.11767,4.97211 -2.19985,4.30328 -0.54466,-0.33661 -2.31345,0.36624 -3.93066,1.56189 -3.83702,2.83683 -5.63371,2.20984 -14.38057,-5.01836 -6.65045,-5.49578 -7.2291,-5.76455 -11.25,-5.22523 L 216,221.26334 v -3.40916 c 0,-7.21505 -6.18587,-10.55253 -9.67861,-5.22194 -1.65654,2.5282 -1.6367,2.79292 0.50192,6.69726 2.13072,3.88992 2.15017,4.13918 0.45166,5.78709 -0.97623,0.94715 -4.69997,2.5822 -8.27497,3.63344 -7.56118,2.22341 -7.76939,2.92182 -3.8305,12.84887 2.5793,6.50048 4.28777,7.4737 7.78912,4.43699 C 204.24969,244.91615 206.33665,244 207.59631,244 209.952,244 213,247.32443 213,249.89377 213,252.46661 209.79745,255 206.54501,255 c -1.72975,0 -3.64984,0.50483 -4.26687,1.12186 -1.25559,1.25559 -1.12648,1.81001 2.47911,10.64556 2.85462,6.99529 2.04216,6.79597 12.46872,3.05896 z"
         id="path140" />
    </g>
  </g>
</svg>
