<?xml version="1.0" encoding="UTF-8" standalone="no"?>
<!-- Created with Inkscape (http://www.inkscape.org/) -->

<svg
   version="1.1"
   id="svg1"
   width="198.52251"
   height="198.52303"
   viewBox="0 0 198.52251 198.52303"
   sodipodi:docname="g89.png"
   xmlns:inkscape="http://www.inkscape.org/namespaces/inkscape"
   xmlns:sodipodi="http://sodipodi.sourceforge.net/DTD/sodipodi-0.dtd"
   xmlns="http://www.w3.org/2000/svg"
   xmlns:svg="http://www.w3.org/2000/svg">
  <defs
     id="defs1" />
  <sodipodi:namedview
     id="namedview1"
     pagecolor="#ffffff"
     bordercolor="#000000"
     borderopacity="0.25"
     inkscape:showpageshadow="2"
     inkscape:pageopacity="0.0"
     inkscape:pagecheckerboard="0"
     inkscape:deskcolor="#d1d1d1" />
  <g
     inkscape:groupmode="layer"
     inkscape:label="Image"
     id="g1"
     transform="translate(-158.01176,-122.00739)">
    <g
       id="g15"
       transform="translate(7.9379146,-28.114634)">
      <path
         style="fill:#fcfaf4"
         d="m 236.07895,300.41667 c 0.048,-1.16495 0.28494,-1.4019 0.60416,-0.60417 0.28887,0.72187 0.25335,1.58438 -0.0789,1.91667 -0.3323,0.33229 -0.56864,-0.25834 -0.52522,-1.3125 z M 232,206.5 c 1.29175,-1.375 2.57363,-2.5 2.84863,-2.5 0.275,0 -0.55688,1.125 -1.84863,2.5 -1.29175,1.375 -2.57363,2.5 -2.84863,2.5 -0.275,0 0.55688,-1.125 1.84863,-2.5 z"
         id="path27" />
      <path
         style="fill:#f1f4f5"
         d="m 230.61309,223.81702 c 0.28881,-0.4673 0.94401,-0.59075 1.45601,-0.27431 1.30838,0.80862 1.16106,1.12396 -0.52511,1.12396 -0.80081,0 -1.21971,-0.38234 -0.9309,-0.84965 z"
         id="path26" />
      <path
         style="fill:#daeac5"
         d="m 262.56429,301.70687 c 0.37553,-0.98622 0.93469,-1.54122 1.24258,-1.23333 0.30789,0.30789 6.4e-4,1.11479 -0.68278,1.79313 -0.98762,0.98026 -1.10248,0.8654 -0.5598,-0.5598 z"
         id="path25" />
      <path
         style="fill:#bed0da"
         d="m 248.25,150.31067 c 0.9625,-0.25152 2.5375,-0.25152 3.5,0 0.9625,0.25153 0.175,0.45733 -1.75,0.45733 -1.925,0 -2.7125,-0.2058 -1.75,-0.45733 z"
         id="path24" />
      <path
         style="fill:#b4c9d5"
         d="m 150.07895,250.41667 c 0.048,-1.16495 0.28494,-1.4019 0.60416,-0.60417 0.28887,0.72187 0.25335,1.58437 -0.0789,1.91667 -0.3323,0.33229 -0.56864,-0.25834 -0.52522,-1.3125 z"
         id="path23" />
      <path
         style="fill:#fddf6e"
         d="M 207.28073,270.75 C 205.63889,268.62139 203,261.08526 203,258.52508 c 0,-2.02635 0.62863,-2.54773 3.75,-3.11016 2.0625,-0.37163 4.3125,-1.12213 5,-1.66775 1.51761,-1.20445 1.62677,-5.17465 0.21482,-7.81291 -1.26252,-2.35904 -6.67102,-2.62371 -9.52369,-0.46606 -3.09322,2.33959 -4.06852,1.83253 -6.19005,-3.2182 -3.59669,-8.56263 -3.66795,-10.11862 -0.52301,-11.41933 12.60204,-5.21204 13.51639,-5.78069 12.99018,-8.07887 -0.28357,-1.23849 -1.09623,-3.67822 -1.8059,-5.42163 -1.55044,-3.80889 -0.0867,-6.33017 3.67491,-6.33017 2.63838,0 3.92276,1.87125 4.91513,7.16103 0.65713,3.5028 0.80247,3.60796 4.33876,3.13921 3.20867,-0.42533 4.52012,0.15687 10.65885,4.73183 3.85,2.86927 8.48229,5.85015 10.29399,6.62419 3.75922,1.60611 5.46415,4.95753 3.84275,7.5538 -0.82691,1.32409 -0.51291,3.37945 1.32678,8.68474 2.82442,8.14506 2.43495,9.09995 -4.70361,11.53231 C 233.85114,262.95153 232,262.28106 232,257.0732 c 0,-3.08215 -3.5546,-5.41228 -7.15724,-4.69175 -6.24412,1.24882 -8.82479,6.61581 -5.37456,11.17742 2.41354,3.19099 1.81025,4.07162 -4.32087,6.30714 -6.88126,2.50903 -6.63455,2.48131 -7.8666,0.88399 z"
         id="path22" />
      <path
         style="fill:#f5b16c"
         d="m 232.5,207 c 0.99549,-1.1 2.03498,-2 2.30998,-2 0.275,0 -0.31449,0.9 -1.30998,2 -0.99549,1.1 -2.03498,2 -2.30998,2 -0.275,0 0.31449,-0.9 1.30998,-2 z"
         id="path21" />
      <path
         style="fill:#68ccd1"
         d="m 287.30902,304.75204 c -0.44496,-0.68638 -1.27867,-3.04888 -1.8527,-5.25 -1.30926,-5.02043 -3.49189,-5.48629 -11.69352,-2.49582 -3.28746,1.19866 -6.32364,1.80013 -6.74707,1.33658 -0.42344,-0.46354 -1.50573,-3.11307 -2.4051,-5.88784 -2.94762,-9.09417 -6.31335,-11.50711 -11.05176,-7.92316 -2.89543,2.19 -6.30225,1.85209 -7.11403,-0.7056 -0.836,-2.634 1.68329,-4.8262 5.54629,-4.8262 5.28345,0 6.42982,-4.46019 3.11585,-12.12288 -3.78389,-8.74924 -3.87297,-8.43483 3.05264,-10.77365 8.96902,-3.02888 9.55134,-2.89077 11.15859,2.64653 1.24319,4.28302 1.69776,4.78149 4.6238,5.07033 3.68091,0.36336 7.05799,-2.04097 7.05799,-5.02498 0,-1.04207 -0.71549,-3.27827 -1.58997,-4.96933 -1.32624,-2.56466 -1.3677,-3.28322 -0.25,-4.33203 2.0155,-1.89127 13.04608,-5.6986 13.87244,-4.78823 1.35556,1.49335 5.06851,13.58869 4.5701,14.88755 -0.2736,0.71299 -2.20861,1.60485 -4.30001,1.98191 -4.93441,0.88962 -6.30256,2.06016 -6.30256,5.39224 0,5.28384 5.59441,7.65485 10.49121,4.44634 3.11614,-2.04177 4.19199,-1.29057 7.1018,4.95874 3.78438,8.12761 3.48708,8.88593 -4.49122,11.45551 -9.37111,3.01817 -10.01229,3.95792 -7.036,10.31241 2.32043,4.95423 2.33061,5.09652 0.46231,6.46265 -2.36925,1.73244 -5.14938,1.79902 -6.21908,0.14893 z"
         id="path20" />
      <path
         style="fill:#b0d57c"
         d="M 220.54143,308.10841 C 216.94284,298.69101 215.97762,298.00773 210.5,301 c -3.71247,2.02802 -4.58206,2.17679 -5.97356,1.02195 -1.01297,-0.84069 -1.51477,-2.50192 -1.32751,-4.39477 0.26706,-2.69941 0.80938,-3.16756 4.80107,-4.14443 4.08783,-1.0004 4.49423,-1.37062 4.43701,-4.04201 -0.0346,-1.61741 -0.79029,-5.27765 -1.67922,-8.13388 l -1.61622,-5.19315 5.17921,-1.69233 c 11.11835,-3.63297 12.82583,-5.97888 9.02946,-12.40562 C 221.28625,258.5217 222.16625,256 225.44956,256 c 1.93145,0 2.64835,0.63583 3.1006,2.75 0.97511,4.55845 2.34582,7.27285 3.99153,7.90437 0.85744,0.32903 4.74081,-0.57649 8.6297,-2.01227 3.88889,-1.43578 7.41087,-2.40028 7.82661,-2.14334 1.10801,0.68479 5.35297,11.48361 4.75083,12.08574 -0.28194,0.28194 -2.70327,1.05327 -5.38072,1.71406 -4.67492,1.15376 -4.88061,1.35329 -5.18303,5.02788 -0.6101,7.41289 4.48467,10.79226 10.81492,7.17356 1.375,-0.78602 3.00136,-1.44508 3.61414,-1.46456 1.18433,-0.0377 3.93537,6.38459 4.96859,11.59912 0.61603,3.10901 0.56701,3.15255 -6.01635,5.34335 -7.93724,2.64134 -9.56638,2.2511 -9.56638,-2.29154 0,-2.001 -0.74495,-4.05056 -1.82874,-5.03138 -2.27087,-2.05511 -6.51916,-2.14564 -8.15565,-0.1738 -1.21011,1.45809 -0.99294,6.72856 0.45999,11.16362 0.61734,1.88441 0.0544,2.38491 -4.63648,4.1225 -10.30536,3.81727 -9.33,4.10747 -12.29769,-3.6589 z"
         id="path19" />
      <path
         style="fill:#f39a40"
         d="m 251.77456,240.55404 c -5.78709,-4.41878 -6.42486,-6.69714 -2.6549,-9.48439 2.15243,-1.59136 2.88034,-2.95593 2.88034,-5.39959 0,-3.93459 -1.52378,-5.67532 -4.95,-5.65475 -3.33692,0.02 -4.4317,0.82254 -6.42215,4.70763 l -1.65122,3.22293 -6.93312,-5.22293 c -3.81321,-2.87262 -6.95796,-5.53946 -6.98831,-5.92631 -0.0304,-0.38686 2.38997,-3.31186 5.37851,-6.5 l 5.43371,-5.79663 2.81629,3.32718 c 2.45989,2.90614 3.32248,3.28578 6.81629,3 3.32234,-0.27175 4.05639,-0.72559 4.33288,-2.67889 0.56773,-4.0109 -0.72111,-6.96919 -3.83859,-8.81073 C 244.34743,198.36473 243,197.18163 243,196.70844 c 0,-0.4732 2.05226,-3.52742 4.56057,-6.78716 5.15495,-6.69924 4.85958,-6.69954 12.98292,0.0132 6.14852,5.08084 8.5419,5.20669 10.75512,0.56553 1.36649,-2.86555 2.21967,-3.5 4.70665,-3.5 2.27773,0 3.32542,0.63166 4.18809,2.52502 1.02463,2.24881 0.80351,2.88301 -2.02143,5.79761 -1.74456,1.79992 -3.17192,4.01051 -3.17192,4.91242 0,0.90191 2.46932,3.80549 5.48738,6.45239 3.01806,2.64691 5.49306,5.21701 5.5,5.71133 0.007,0.49433 -2.01238,3.35852 -4.48738,6.36488 -2.475,3.00636 -4.5,6.06651 -4.5,6.80034 0,0.73382 1.575,2.53554 3.5,4.00381 3.61386,2.75642 4.52273,6.00947 2.3,8.2322 -2.13713,2.13713 -5.63165,1.34672 -7.95812,-1.8 -1.2199,-1.65 -3.00744,-3 -3.97231,-3 -0.96487,0 -3.89107,2.475 -6.50267,5.5 -2.61159,3.025 -5.49781,5.5 -6.41382,5.5 -0.91601,0 -3.69634,-1.55068 -6.17852,-3.44596 z"
         id="path18" />
      <path
         style="fill:#739bb2"
         d="m 179,180.62244 c 0,-0.20765 0.7875,-0.99515 1.75,-1.75 1.58606,-1.24387 1.62143,-1.2085 0.37756,0.37756 C 179.82119,180.91575 179,181.44548 179,180.62244 Z"
         id="path17" />
      <path
         style="fill:#5b89a4"
         d="m 284.87244,208.25 c -1.24387,-1.58606 -1.2085,-1.62143 0.37756,-0.37756 0.9625,0.75485 1.75,1.54235 1.75,1.75 0,0.82304 -0.82119,0.29331 -2.12756,-1.37244 z"
         id="path16" />
      <path
         style="fill:#407696"
         d="m 237.44841,347.9821 c -15.56869,-1.96355 -33.32072,-9.4575 -47.22847,-19.93731 -13.3926,-10.09162 -22.31669,-21.43862 -30.36024,-38.60311 -16.25612,-34.68964 -9.2088,-76.31127 18.05031,-106.60553 11.38098,-12.64819 30.13956,-23.8486 47.75001,-28.51067 13.81017,-3.65601 33.65234,-3.83499 46.78726,-0.42204 29.9105,7.77189 52.22862,25.61914 65.82476,52.63842 24.46566,48.62005 3.94317,108.11244 -45.65293,132.3427 -15.96909,7.80172 -37.41092,11.33744 -55.1707,9.09754 z M 232.5,314.17144 c 7.74343,-3.04136 7.48118,-2.46929 5.92336,-12.92144 -0.60047,-4.02882 -0.50423,-4.25 1.84916,-4.25 3.11042,0 4.35917,1.48681 5.24928,6.25 0.69254,3.70589 0.75641,3.75 5.42977,3.75 3.12022,0 6.73943,-0.95806 10.63871,-2.81623 8.45184,-4.02766 15.45986,-6.48251 18.81393,-6.59037 2.63654,-0.0848 3.00521,0.32135 4,4.4066 1.00449,4.12506 1.37811,4.52697 4.48416,4.82368 8.26463,0.78949 10.05493,-2.09418 6.10591,-9.83488 l -2.00571,-3.93153 2.75571,-1.39316 c 1.51565,-0.76623 5.1703,-2.18258 8.12145,-3.14744 5.35674,-1.75134 5.36492,-1.76041 4.87568,-5.40796 -0.26954,-2.00952 -1.5046,-6.01204 -2.7446,-8.89448 -2.64868,-6.15704 -5.2562,-7.3555 -9.95915,-4.5774 -3.70041,2.18588 -6.53766,0.99424 -6.53766,-2.74582 0,-2.00724 0.72227,-2.56422 4.5,-3.4702 4.30664,-1.03282 4.51226,-1.24767 4.78525,-5 0.15688,-2.15645 -0.55831,-6.39581 -1.58932,-9.42081 -1.77313,-5.20236 -2.07222,-5.51677 -5.52681,-5.80986 -2.36467,-0.20062 -5.77049,0.64075 -9.66068,2.38656 -6.6349,2.97756 -7.164,4.18588 -4.39141,10.02869 1.89784,3.99939 0.68982,6.39461 -3.22508,6.39461 -1.96713,0 -2.55353,-0.75604 -3.49915,-4.51147 -1.6631,-6.60475 -5.25955,-6.79343 -19.1428,-1.00428 -1.30032,0.54222 -1.75013,0.25256 -1.7505,-1.12726 -2.8e-4,-1.02135 -0.90028,-4.22432 -2,-7.11772 -1.09973,-2.8934 -1.9995,-5.7059 -1.9995,-6.25 0,-1.67862 2.36858,-1.10285 6.21481,1.51073 2.0235,1.375 4.47741,2.5 5.45314,2.5 0.97573,0 4.34993,-2.549 7.49823,-5.66444 l 5.72417,-5.66445 2.95604,3.16445 c 5.31345,5.68807 12.66866,3.24392 11.97394,-3.97898 -0.23853,-2.48003 -1.1404,-3.84454 -3.53181,-5.34354 -1.76631,-1.10717 -3.22881,-2.30154 -3.25,-2.65416 -0.0212,-0.35261 1.77617,-2.82761 3.99412,-5.5 6.31362,-7.6072 6.2809,-8.84952 -0.38974,-14.8005 -3.11855,-2.78211 -5.66398,-5.42493 -5.6565,-5.87294 0.007,-0.44801 1.3636,-1.95051 3.0136,-3.33889 3.51843,-2.96057 3.89223,-6.45432 1,-9.34655 -3.2015,-3.2015 -7.44074,-2.59978 -10.5678,1.5 -1.46827,1.925 -2.97314,3.5 -3.34417,3.5 -0.37103,0 -3.33564,-2.25 -6.58803,-5 -3.25239,-2.75 -6.68396,-5 -7.6257,-5 -1.97318,0 -10.61528,10.36735 -11.51849,13.81797 -0.4367,1.66833 -0.0248,2.72556 1.46957,3.77228 5.62607,3.94064 6.75712,7.49246 3.02242,9.49121 -1.9014,1.01759 -2.52112,0.7124 -5.31793,-2.61892 -2.63913,-3.1435 -3.59745,-3.6624 -5.76098,-3.11938 -2.25999,0.56722 -8.62356,7.87738 -12.26889,14.09391 -0.55,0.93794 -1.88672,1.7858 -2.97048,1.88413 -1.57437,0.14286 -2.16188,-0.7258 -2.92257,-4.3212 -0.52365,-2.475 -1.43693,-4.83061 -2.02952,-5.23469 -2.16844,-1.47863 -7.26935,-0.76321 -9.11728,1.27872 -1.64558,1.81835 -1.71319,2.50844 -0.61237,6.25 2.05772,6.99396 2.16214,6.81956 -5.84778,9.76617 -7.33867,2.69968 -7.49769,2.83088 -7.3928,6.09941 0.059,1.83722 1.18396,6.04039 2.5,9.34039 2.05619,5.15593 2.7921,6.04571 5.23123,6.32496 1.64418,0.18823 3.61141,-0.37458 4.6756,-1.33766 2.14167,-1.93818 4.84238,-1.66898 6.28793,0.62678 1.69023,2.68431 0.026,4.77453 -4.7611,5.97995 -4.05525,1.02112 -4.54086,1.44752 -4.54086,3.98717 0,3.59494 3.60788,13.34848 5.52675,14.941 0.79818,0.66243 1.2445,1.53891 0.99183,1.94774 -0.25268,0.40884 0.42728,3.84392 1.51101,7.63352 1.08372,3.78959 1.97041,7.20872 1.97041,7.59804 0,0.38933 -1.59708,1.00749 -3.54907,1.37368 -1.95198,0.3662 -4.20198,1.31873 -5,2.11674 -1.95185,1.95185 -1.83839,7.22246 0.20406,9.47934 2.17398,2.40222 4.83049,2.30985 9.0787,-0.31569 4.13117,-2.5532 4.25794,-2.42754 7.45965,7.39443 2.5846,7.92884 2.88114,8.01623 13.30666,3.92144 z m 9.04245,-84.10276 c -0.31658,-0.51223 0.19021,-2.53723 1.12619,-4.5 1.98814,-4.16917 5.56654,-4.86628 7.39942,-1.44151 1.16627,2.17919 0.0192,3.82065 -2.69562,3.85752 -0.62015,0.008 -1.68775,0.69031 -2.37244,1.51531 -1.42431,1.71619 -2.62618,1.91387 -3.45755,0.56868 z"
         id="path15" />
    </g>
  </g>
</svg>
